# xmcd
#
# Track frame offsets: 
#        150
#        13233
#        19151
#        30550
#        41340
#        52818
#        63576
#        74352
#        86096
#        97299
#        108650
#        120521
#        137108
#        151224
#
# Disc length: 2149 seconds
#
# Revision: 0
# Processed by: cddbd v1.5.1PL0 Copyright (c) Steve Scherf et al.
# Submitted via: ExactAudioCopy v0.95a3
#
DISCID=bd08630e
DTITLE=Various Artist - Country Ballads
DYEAR=2003
DGENRE=Country
TTITLE0=Charlie Rich - Behind Closed Doors
TTITLE1=Gene Autry - Have I Told You Lately That I Love You
TTITLE2=Freddy Fender - Before The Next Teardrop Falls
TTITLE3=Sammi Smith - Help Me Make It Through The Night
TTITLE4=Kenny Rogers - Poem For A Little Lady
TTITLE5=Patsy Cline - I Cried All the Way To The Altar
TTITLE6=Hank Williams - I Can't Helb It (If I'm Still In Love With You
TTITLE6=)
TTITLE7=Sandy Posey - Bring Him Safely Home To Me
TTITLE8=Frankie Laine - Answer Me
TTITLE9=Willie Nelson - Suffering In Silence
TTITLE10=Jack Greene - There Goes My Everything
TTITLE11=Ferlin Husky - Giddyup Go
TTITLE12=Margo Smith - It Only Hurts For A Little While
TTITLE13=Brenda Lee - I'm Sorry
EXTD=
EXTT0=
EXTT1=
EXTT2=
EXTT3=
EXTT4=
EXTT5=
EXTT6=
EXTT7=
EXTT8=
EXTT9=
EXTT10=
EXTT11=
EXTT12=
EXTT13=
PLAYORDER=
